<svg xmlns="http://www.w3.org/2000/svg" viewBox="0 0 190 32" fill="none" role="img" aria-label="minima by Mubit">
  <!-- "minima by" + the Mubit brand lockup (dark variant, white), nested as vector and sized subordinate to "minima". -->
  <text y="23" font-family="'Manrope', ui-sans-serif, system-ui, -apple-system, 'Segoe UI', Roboto, Helvetica, Arial, sans-serif">
    <tspan font-size="26" font-weight="800" letter-spacing="-0.6" fill="#f7f6f3">minima</tspan>
    <tspan dx="10" font-size="13" font-weight="500" fill="#8b8b90">by</tspan>
  </text>
  <svg x="122" y="9" width="64" height="14" viewBox="109 141 1662 362" preserveAspectRatio="xMidYMid meet">
<rect x="109" y="141" width="409" height="362" fill="#FF4500"/>
<path d="M170.065 306.101L162 298.036L189.688 286.478L170.065 306.101ZM177.342 313.378L172.711 308.747L198.773 282.685L214.671 276.049L177.342 313.378ZM184.618 320.654L179.988 316.024L223.755 272.256L239.651 265.62L184.618 320.654ZM191.895 327.931L187.264 323.3L248.736 261.828L264.637 255.19L191.895 327.931ZM199.171 335.207L194.542 330.577L273.722 251.397L289.615 244.763L199.171 335.207ZM206.448 342.484L201.817 337.853L298.7 240.97L314.598 234.333L206.448 342.484ZM213.724 349.76L209.094 345.13L323.683 230.541L339.579 223.905L213.724 349.76ZM221.001 357.037L216.37 352.406L348.663 220.113L364.561 213.477L221.001 357.037ZM228.278 364.313L223.647 359.683L373.645 209.684L389.544 203.047L228.278 364.313ZM235.554 371.59L230.924 366.96L398.628 199.255L414.524 192.62L235.554 371.59ZM446.315 211.544L260.912 396.947L238.2 374.236L423.608 188.827L462.591 172.555L446.315 211.544ZM435.887 236.524L268.188 404.223L263.558 399.593L442.523 220.628L435.887 236.524ZM425.46 261.504L275.464 411.5L270.834 406.87L432.095 245.609L425.46 261.504ZM415.03 286.487L282.741 418.776L278.11 414.146L421.667 270.589L415.03 286.487ZM404.601 311.47L290.018 426.053L285.387 421.423L411.238 295.571L404.601 311.47ZM394.172 336.452L297.294 433.33L292.664 428.699L400.809 320.554L394.172 336.452ZM383.744 361.432L304.571 440.606L299.94 435.976L390.381 345.534L383.744 361.432ZM373.317 386.413L311.847 447.882L307.217 443.252L379.952 370.517L373.317 386.413ZM362.888 411.395L319.124 455.159L314.493 450.529L369.524 395.497L362.888 411.395ZM352.459 436.376L326.4 462.436L321.769 457.805L359.096 420.478L352.459 436.376ZM337.109 473.145L329.046 465.082L348.667 445.461L337.109 473.145Z" fill="white"/>
<path d="M759.01 323.72L760.27 235.52H756.91L698.11 386.3L639.31 235.52H635.95L637.21 323.72V464H595.63V170.84H653.17L698.11 287.18H701.05L746.41 170.84H800.59V464H759.01V323.72ZM887.366 170.84V351.02C887.366 363.06 887.646 373.98 888.206 383.78C889.046 393.58 891.146 401.98 894.506 408.98C897.866 415.7 902.906 420.88 909.626 424.52C916.346 428.16 925.586 429.98 937.346 429.98C949.106 429.98 958.346 428.16 965.066 424.52C971.786 420.88 976.826 415.7 980.186 408.98C983.546 401.98 985.506 393.58 986.066 383.78C986.906 373.98 987.326 363.06 987.326 351.02V170.84H1034.37V342.62C1034.37 363.62 1033.11 382.1 1030.59 398.06C1028.35 413.74 1023.73 426.9 1016.73 437.54C1009.73 447.9 999.786 455.74 986.906 461.06C974.306 466.38 957.786 469.04 937.346 469.04C916.906 469.04 900.246 466.38 887.366 461.06C874.766 455.74 864.966 447.9 857.966 437.54C850.966 426.9 846.206 413.74 843.686 398.06C841.446 382.1 840.326 363.62 840.326 342.62V170.84H887.366ZM1085.44 170.84H1186.66C1213.26 170.84 1233.84 177.7 1248.4 191.42C1263.24 205.14 1270.66 223.9 1270.66 247.7C1270.66 264.78 1266.46 278.36 1258.06 288.44C1249.66 298.52 1238.32 305.66 1224.04 309.86V311.96C1241.12 315.88 1254.84 323.44 1265.2 334.64C1275.56 345.56 1280.74 361.1 1280.74 381.26C1280.74 393.3 1278.78 404.36 1274.86 414.44C1270.94 424.52 1265.34 433.34 1258.06 440.9C1250.78 448.18 1241.96 453.92 1231.6 458.12C1221.52 462.04 1210.32 464 1198 464H1085.44V170.84ZM1183.72 427.88C1199.4 427.88 1211.44 424.66 1219.84 418.22C1228.24 411.78 1232.44 401.42 1232.44 387.14V372.02C1232.44 357.74 1228.24 347.38 1219.84 340.94C1211.44 334.5 1199.4 331.28 1183.72 331.28H1131.64V427.88H1183.72ZM1177 296.84C1191.84 296.84 1203.04 294.04 1210.6 288.44C1218.44 282.56 1222.36 272.9 1222.36 259.46V244.34C1222.36 230.9 1218.44 221.38 1210.6 215.78C1203.04 209.9 1191.84 206.96 1177 206.96H1131.64V296.84H1177ZM1323.42 464V428.3H1392.3V206.54H1323.42V170.84H1508.22V206.54H1439.34V428.3H1508.22V464H1323.42ZM1678.57 210.32V464H1631.53V210.32H1539.55V170.84H1770.55V210.32H1678.57Z" fill="white"/>
  </svg>
</svg>
